<svg version="1.1" id="Layer_1" xmlns="http://www.w3.org/2000/svg" xmlns:xlink="http://www.w3.org/1999/xlink" x="0px" y="0px" width="48" viewBox="0 0 1000 1000" enable-background="new 0 0 1000 1000" xml:space="preserve" height="48">
<path fill="#000000" opacity="1.000000" stroke="none" d="
M590.000000,1001.000000 
	C393.333344,1001.000000 197.166672,1001.000000 1.000000,1001.000000 
	C1.000000,667.666687 1.000000,334.333344 1.000000,1.000000 
	C334.333344,1.000000 667.666687,1.000000 1001.000000,1.000000 
	C1001.000000,334.333344 1001.000000,667.666687 1001.000000,1001.000000 
	C864.166687,1001.000000 727.333313,1001.000000 590.000000,1001.000000 
M93.466515,582.083008 
	C152.882431,683.912109 212.305786,785.736938 271.668640,887.596985 
	C273.067078,889.996521 274.517944,891.075195 277.453644,891.073608 
	C426.433838,890.993286 575.414062,890.995422 724.394287,891.060242 
	C727.217285,891.061462 728.808289,890.241638 730.268433,887.736328 
	C804.705627,760.017517 879.211853,632.338989 953.776978,504.694916 
	C955.280396,502.121399 955.517761,500.235870 953.933167,497.524139 
	C879.350830,369.890289 804.843689,242.212479 730.403992,114.495399 
	C728.863037,111.851479 727.212036,110.925697 724.160095,110.927330 
	C575.346558,111.006760 426.533020,111.007454 277.719482,110.923874 
	C274.612610,110.922127 273.052917,112.001709 271.539246,114.598801 
	C197.184769,242.173431 122.767563,369.711578 48.273907,497.204987 
	C46.633755,500.012054 46.622620,502.003021 48.272198,504.801117 
	C63.303055,530.297852 78.173103,555.889343 93.466515,582.083008 
z"></path>
<path fill="#FD0000" opacity="1.000000" stroke="none" d="
M93.278320,581.768066 
	C78.173103,555.889343 63.303055,530.297852 48.272198,504.801117 
	C46.622620,502.003021 46.633755,500.012054 48.273907,497.204987 
	C122.767563,369.711578 197.184769,242.173431 271.539246,114.598801 
	C273.052917,112.001709 274.612610,110.922127 277.719482,110.923874 
	C426.533020,111.007454 575.346558,111.006760 724.160095,110.927330 
	C727.212036,110.925697 728.863037,111.851479 730.403992,114.495399 
	C804.843689,242.212479 879.350830,369.890289 953.933167,497.524139 
	C955.517761,500.235870 955.280396,502.121399 953.776978,504.694916 
	C879.211853,632.338989 804.705627,760.017517 730.268433,887.736328 
	C728.808289,890.241638 727.217285,891.061462 724.394287,891.060242 
	C575.414062,890.995422 426.433838,890.993286 277.453644,891.073608 
	C274.517944,891.075195 273.067078,889.996521 271.668640,887.596985 
	C212.305786,785.736938 152.882431,683.912109 93.278320,581.768066 
M415.159210,173.703568 
	C410.475037,180.342316 405.519867,186.812454 401.235138,193.699692 
	C399.427307,196.605576 398.144348,200.386780 398.129791,203.776566 
	C397.935242,249.100708 398.013031,294.425995 397.995972,339.751007 
	C397.995239,341.682617 397.731323,343.614105 397.571930,345.792938 
	C395.236542,345.792938 393.421265,345.792938 391.605957,345.792938 
	C361.444824,345.792938 331.283661,345.793976 301.122528,345.792206 
	C294.008026,345.791809 293.998718,345.787476 293.998413,338.610229 
	C293.995880,274.788605 293.996918,210.966965 293.996918,147.145325 
	C293.996918,145.189896 293.996887,143.234467 293.996887,141.279053 
	C293.505493,140.981812 293.014130,140.684586 292.522736,140.387360 
	C290.988953,142.133469 289.119720,143.683701 287.969299,145.653687 
	C219.658539,262.630219 151.424423,379.651489 83.062775,496.598236 
	C81.092415,499.968964 81.265526,502.298523 83.158936,505.522430 
	C107.062843,546.223511 130.844208,586.996582 154.627441,627.768494 
	C199.181686,704.148315 243.722672,780.535950 288.233643,856.941040 
	C289.739685,859.526184 291.214264,861.113525 294.714294,861.098083 
	C331.873413,860.934570 369.033722,861.038879 406.192841,860.872559 
	C408.062531,860.864197 410.586884,859.530701 411.687927,858.006348 
	C423.791321,841.249634 435.742096,824.380676 447.514252,807.389709 
	C448.796173,805.539490 449.174164,802.734375 449.174957,800.371826 
	C449.248383,582.411743 449.244080,364.451691 449.244904,146.491623 
	C449.244904,144.746368 449.244934,143.001114 449.244934,140.958847 
	C443.727509,141.639771 438.891327,139.133636 435.161194,145.522278 
	C429.496490,155.224258 422.192322,163.968979 415.159210,173.703568 
M913.296143,487.217010 
	C845.951355,371.780701 778.606628,256.344391 711.261841,140.908096 
	C710.762451,141.073929 710.263062,141.239746 709.763672,141.405579 
	C709.763672,143.316025 709.763672,145.226456 709.763733,147.136902 
	C709.765442,211.133926 709.768005,275.130951 709.767456,339.127960 
	C709.767395,345.783569 709.758667,345.791138 703.125183,345.791718 
	C672.293274,345.794556 641.461426,345.792816 610.629517,345.792725 
	C608.886414,345.792725 607.143311,345.792725 605.234436,345.792725 
	C605.234436,342.812286 605.234375,340.649506 605.234436,338.486725 
	C605.235535,293.322174 605.292480,248.157394 605.114746,202.993530 
	C605.102600,199.916656 604.005127,196.381516 602.263733,193.849533 
	C591.451782,178.129044 580.285217,162.652924 569.292542,147.056107 
	C564.531555,140.301071 562.245850,139.453934 553.755005,141.885269 
	C553.755005,144.146851 553.755066,146.474915 553.755066,148.802963 
	C553.755066,306.795593 553.755249,464.788239 553.754944,622.780884 
	C553.754822,681.444824 553.708435,740.108826 553.874329,798.772278 
	C553.883423,801.994324 554.927551,805.705017 556.724243,808.349670 
	C567.415283,824.086182 578.772827,839.376465 589.225220,855.264771 
	C592.534668,860.295471 596.172119,861.118408 601.486450,861.090820 
	C636.483887,860.908875 671.482971,860.931396 706.480591,861.093140 
	C710.174561,861.110229 712.118042,859.861145 713.906677,856.790955 
	C780.507935,742.467102 847.037109,628.100403 914.106323,514.051392 
	C919.916077,504.172058 921.551208,496.476715 913.296143,487.217010 
z"></path>
<path fill="#000000" opacity="1.000000" stroke="none" d="
M415.371887,173.411957 
	C422.192322,163.968979 429.496490,155.224258 435.161194,145.522278 
	C438.891327,139.133636 443.727509,141.639771 449.244934,140.958847 
	C449.244934,143.001114 449.244904,144.746368 449.244904,146.491623 
	C449.244080,364.451691 449.248383,582.411743 449.174957,800.371826 
	C449.174164,802.734375 448.796173,805.539490 447.514252,807.389709 
	C435.742096,824.380676 423.791321,841.249634 411.687927,858.006348 
	C410.586884,859.530701 408.062531,860.864197 406.192841,860.872559 
	C369.033722,861.038879 331.873413,860.934570 294.714294,861.098083 
	C291.214264,861.113525 289.739685,859.526184 288.233643,856.941040 
	C243.722672,780.535950 199.181686,704.148315 154.627441,627.768494 
	C130.844208,586.996582 107.062843,546.223511 83.158936,505.522430 
	C81.265526,502.298523 81.092415,499.968964 83.062775,496.598236 
	C151.424423,379.651489 219.658539,262.630219 287.969299,145.653687 
	C289.119720,143.683701 290.988953,142.133469 292.522736,140.387360 
	C293.014130,140.684586 293.505493,140.981812 293.996887,141.279053 
	C293.996887,143.234467 293.996918,145.189896 293.996918,147.145325 
	C293.996918,210.966965 293.995880,274.788605 293.998413,338.610229 
	C293.998718,345.787476 294.008026,345.791809 301.122528,345.792206 
	C331.283661,345.793976 361.444824,345.792938 391.605957,345.792938 
	C393.421265,345.792938 395.236542,345.792938 397.571930,345.792938 
	C397.731323,343.614105 397.995239,341.682617 397.995972,339.751007 
	C398.013031,294.425995 397.935242,249.100708 398.129791,203.776566 
	C398.144348,200.386780 399.427307,196.605576 401.235138,193.699692 
	C405.519867,186.812454 410.475037,180.342316 415.371887,173.411957 
z"></path>
<path fill="#000000" opacity="1.000000" stroke="none" d="
M913.491943,487.527222 
	C921.551208,496.476715 919.916077,504.172058 914.106323,514.051392 
	C847.037109,628.100403 780.507935,742.467102 713.906677,856.790955 
	C712.118042,859.861145 710.174561,861.110229 706.480591,861.093140 
	C671.482971,860.931396 636.483887,860.908875 601.486450,861.090820 
	C596.172119,861.118408 592.534668,860.295471 589.225220,855.264771 
	C578.772827,839.376465 567.415283,824.086182 556.724243,808.349670 
	C554.927551,805.705017 553.883423,801.994324 553.874329,798.772278 
	C553.708435,740.108826 553.754822,681.444824 553.754944,622.780884 
	C553.755249,464.788239 553.755066,306.795593 553.755066,148.802963 
	C553.755066,146.474915 553.755005,144.146851 553.755005,141.885269 
	C562.245850,139.453934 564.531555,140.301071 569.292542,147.056107 
	C580.285217,162.652924 591.451782,178.129044 602.263733,193.849533 
	C604.005127,196.381516 605.102600,199.916656 605.114746,202.993530 
	C605.292480,248.157394 605.235535,293.322174 605.234436,338.486725 
	C605.234375,340.649506 605.234436,342.812286 605.234436,345.792725 
	C607.143311,345.792725 608.886414,345.792725 610.629517,345.792725 
	C641.461426,345.792816 672.293274,345.794556 703.125183,345.791718 
	C709.758667,345.791138 709.767395,345.783569 709.767456,339.127960 
	C709.768005,275.130951 709.765442,211.133926 709.763733,147.136902 
	C709.763672,145.226456 709.763672,143.316025 709.763672,141.405579 
	C710.263062,141.239746 710.762451,141.073929 711.261841,140.908096 
	C778.606628,256.344391 845.951355,371.780701 913.491943,487.527222 
z"></path>
</svg>