<svg version="1.1" id="Layer_1" xmlns="http://www.w3.org/2000/svg" xmlns:xlink="http://www.w3.org/1999/xlink" x="0px" y="0px" width="48" viewBox="0 0 496 496" enable-background="new 0 0 496 496" xml:space="preserve" height="48">
<path fill="#000000" opacity="1.000000" stroke="none" d="
M455.615723,291.543152 
	C426.224640,341.913666 396.994202,391.953369 367.878937,442.060028 
	C366.081696,445.152954 364.148895,446.459442 360.463562,446.454041 
	C287.641907,446.347443 214.819992,446.349609 141.998337,446.458496 
	C138.176407,446.464203 136.035965,445.248413 134.105209,441.929199 
	C98.177559,380.165070 62.186996,318.437225 25.975840,256.839142 
	C23.315697,252.314026 23.476694,249.336761 26.086378,244.897980 
	C62.299267,183.304047 98.302605,121.586754 134.242722,59.833004 
	C136.092590,56.654491 138.173660,55.578537 141.765320,55.583191 
	C214.587021,55.677593 287.408936,55.688042 360.230560,55.567707 
	C364.155182,55.561226 366.197601,57.016399 368.072021,60.245235 
	C392.067108,101.579117 416.169128,142.850937 440.261230,184.128479 
	C452.684692,205.413925 465.109589,226.698792 477.635956,247.923645 
	C478.874054,250.021454 479.226379,251.534546 477.873016,253.787491 
	C470.413055,266.205536 463.139740,278.735748 455.615723,291.543152 
M158.525391,174.222885 
	C157.525665,174.222488 156.525925,174.222580 155.526199,174.221634 
	C146.802536,174.213318 146.808121,174.213257 146.810318,165.514175 
	C146.817749,136.182510 146.828964,106.850838 146.800095,77.519203 
	C146.798737,76.141617 147.372467,74.544800 145.949890,73.415558 
	C144.489594,74.016518 144.134155,75.419510 143.484909,76.530350 
	C133.651657,93.354698 123.869064,110.208626 114.048347,127.040314 
	C91.133385,166.314178 68.259903,205.612518 45.203114,244.803009 
	C42.626781,249.182098 42.447910,252.528122 45.117470,257.076538 
	C78.246490,313.521729 111.171371,370.086792 144.068024,426.667999 
	C145.672760,429.428070 147.437592,430.736176 150.743530,430.708130 
	C167.241486,430.568146 183.741745,430.583130 200.240082,430.700653 
	C203.439194,430.723480 205.461304,429.591583 207.225372,426.947144 
	C211.754639,420.157410 216.397964,413.431213 221.297073,406.905914 
	C223.852158,403.502686 224.728256,399.985840 224.722656,395.798553 
	C224.635880,330.801971 224.662857,265.805267 224.661224,200.808563 
	C224.660187,159.477341 224.665283,118.146103 224.619827,76.814926 
	C224.617783,74.959175 225.433884,72.505630 222.804993,71.671494 
	C220.306335,70.878662 219.320480,73.014931 218.185806,74.627846 
	C213.106339,81.848198 208.126709,89.141006 202.925354,96.272232 
	C201.056076,98.835083 200.283600,101.429581 200.297394,104.588409 
	C200.389114,125.586899 200.345764,146.586044 200.324417,167.584946 
	C200.317795,174.104584 200.209930,174.195374 193.514847,174.205887 
	C182.182114,174.223694 170.849350,174.218796 158.525391,174.222885 
M435.685181,293.261230 
	C443.052979,280.598816 450.320496,267.876190 457.859436,255.316528 
	C459.732117,252.196732 459.873749,249.784210 457.952271,246.649460 
	C452.645874,237.992416 447.645660,229.147614 442.528015,220.374924 
	C419.959747,181.688416 397.398529,142.997803 374.821472,104.316414 
	C368.987091,94.320396 363.104736,84.352386 356.994843,73.946434 
	C355.808197,76.610634 356.235962,78.773659 356.233307,80.860168 
	C356.196381,109.846817 356.132355,138.833878 356.273712,167.819870 
	C356.296326,172.457779 354.951141,174.397156 350.034851,174.310410 
	C336.212036,174.066544 322.379852,174.069824 308.556671,174.298264 
	C304.010376,174.373398 302.520844,172.936249 302.567871,168.322174 
	C302.780182,147.500504 302.616364,126.675247 302.707031,105.851799 
	C302.722198,102.363533 301.918762,99.362114 299.874390,96.522888 
	C294.815765,89.497391 289.927368,82.349548 284.906219,75.296677 
	C283.701508,73.604477 282.769714,70.995300 280.108612,71.640358 
	C277.089600,72.372177 278.289551,75.223763 278.279388,77.150917 
	C278.180756,95.808525 278.214996,114.466850 278.215637,133.124969 
	C278.218597,220.751663 278.223785,308.378357 278.223572,396.005066 
	C278.223541,399.330139 278.138855,402.533875 280.331635,405.509613 
	C285.565125,412.611847 290.670685,419.818604 295.539490,427.174042 
	C297.362793,429.928497 299.498444,430.716980 302.599518,430.696625 
	C318.758148,430.590607 334.918427,430.565948 351.076569,430.701416 
	C354.327789,430.728668 356.214996,429.602570 357.842163,426.804047 
	C383.618164,382.471619 409.487274,338.193359 435.685181,293.261230 
z"></path>
</svg>